<?xml version="1.0" encoding="utf-8"?>
<!-- Generator: Adobe Illustrator 14.0.0, SVG Export Plug-In . SVG Version: 6.00 Build 43363)  -->
<!DOCTYPE svg PUBLIC "-//W3C//DTD SVG 1.1//EN" "http://www.w3.org/Graphics/SVG/1.1/DTD/svg11.dtd">
<svg version="1.1" id="Calque_1" xmlns="http://www.w3.org/2000/svg" xmlns:xlink="http://www.w3.org/1999/xlink" x="0px" y="0px"
	 width="150px" height="15.1px" viewBox="0 0 150 15.1" enable-background="new 0 0 150 15.1" xml:space="preserve">
<g>
	<path fill="#1B171B" d="M3.127,5.945v8.836H1.424V5.945H0V4.399h1.424V3.032c0-1.408,0.298-2.577,2.615-2.577
		c0.317,0,0.674,0.021,0.992,0.04v1.428c-0.159,0-0.357-0.021-0.515-0.021c-1.389,0-1.389,0.476-1.389,1.21v1.287h1.903v1.546"/>
</g>
<path fill="#1B171B" d="M11.155,5.786c-0.973,0-3.328,0-3.328,3.229v5.766H6.122V4.398h1.667V6.42
	c0.592-2.318,2.297-2.298,3.187-2.298c0.201,0,0.637,0.02,0.952,0.059v1.605"/>
<path fill="#1B171B" d="M21.381,14.803c-1.308,0-1.666-0.299-1.901-1.311c-0.574,0.795-1.23,1.568-3.626,1.568
	c-2.576,0-3.466-1.053-3.466-3.111c0-2.084,0.91-2.834,6.38-3.548c0.594-0.078,0.594-0.972,0.594-1.268
	c0-1.387-0.674-1.624-2.379-1.624c-2.217,0-2.536,0.572-2.536,2.099h-1.643c0-1.446,0-3.486,4.417-3.486
	c2.833,0,3.886,0.891,3.886,3.366v5.113c0,0.873,0.354,0.891,0.991,0.891v1.289C21.857,14.781,21.618,14.803,21.381,14.803
	 M19.402,9.473c-0.953,0.316-1.687,0.436-2.319,0.514c-2.854,0.377-2.933,1.012-2.933,2.141c0,1.188,0.87,1.545,2.059,1.545
	c2.083,0,3.193-0.932,3.193-2.971V9.473z"/>
<path fill="#1B171B" d="M30.105,14.781v-6.6c0-1.564-0.141-2.633-2.1-2.633c-1.584,0-3.013,0.652-3.013,3.207v6.025h-1.702V4.398
	h1.702v1.605c0.358-0.814,0.994-1.883,3.33-1.883c3.408,0,3.489,2.08,3.489,3.587v7.073"/>
<path fill="#1B171B" d="M38.116,15.059c-2.338,0-4.914-0.834-4.914-5.428c0-3.905,1.823-5.51,5.051-5.51
	c3.548,0,4.221,2.08,4.321,3.528H40.89c-0.181-1.012-0.538-2.141-2.696-2.141c-2.337,0-3.249,1.246-3.249,4.159
	c0,2.617,0.71,4.002,3.229,4.002c2.535,0,2.638-1.307,2.773-2.475h1.685C42.633,12.562,42.039,15.059,38.116,15.059"/>
<path fill="#1B171B" d="M53.239,10.164h-7.808c0,1.506,0.18,3.508,3.171,3.508c2.022,0,2.614-0.674,2.852-2.002h1.606
	c-0.118,1.627-0.913,3.391-4.558,3.391c-2.912,0-4.873-1.367-4.873-5.213c0-4.222,1.722-5.727,5.092-5.727
	c1.228,0,4.535-0.02,4.535,5.252C53.257,9.631,53.239,9.908,53.239,10.164 M48.542,5.509c-2.536,0-2.931,1.584-3.111,3.27h6.023
	C51.455,6.815,50.98,5.509,48.542,5.509"/>
<path fill="#1B171B" d="M58.02,14.781c-0.752,0-1.763-0.021-2.298-0.518c-0.536-0.494-0.557-1.465-0.557-2.096V6.221H53.8V4.398
	h1.365v-3.29h2.755v3.29h1.704v1.822H57.92v5.371c0,0.516,0,0.752,0.177,0.932c0.16,0.156,0.397,0.156,0.636,0.156h0.89v2.102"/>
<path fill="#1B171B" d="M63.176,10.463c0,1.664,0.573,2.518,2.533,2.518c1.707,0,1.822-0.656,2.002-1.268h2.694
	c-0.216,1.285-0.791,3.348-4.911,3.348c-3.548,0-5.054-1.805-5.054-5.43c0-3.312,1.306-5.509,5.172-5.509
	c4.576,0,5.132,3.35,4.972,6.341 M65.731,6.222c-2.24,0-2.358,1.267-2.499,2.318h4.522C67.754,7.331,67.514,6.222,65.731,6.222
	 M66.147,3.091h-1.705l1.029-3.052h2.536L66.147,3.091z"/>
<path fill="#1B171B" d="M79.371,10.463c0,1.664,0.572,2.518,2.537,2.518c1.703,0,1.822-0.656,2-1.268h2.695
	c-0.219,1.285-0.793,3.348-4.916,3.348c-3.545,0-5.053-1.805-5.053-5.43c0-3.312,1.309-5.509,5.172-5.509
	c4.578,0,5.135,3.35,4.975,6.341 M81.924,6.222c-2.236,0-2.355,1.267-2.494,2.318h4.518C83.947,7.331,83.711,6.222,81.924,6.222
	 M82.342,3.091h-1.703l1.031-3.052h2.533L82.342,3.091z"/>
<polyline fill="#1B171B" points="93.521,14.781 90.906,14.781 87.145,4.398 90.137,4.398 92.254,11.77 94.355,4.398 97.268,4.398 
	"/>
<path fill="#1B171B" d="M98.188,0.455h2.75v2.596h-2.75V0.455z M98.188,4.398h2.75v10.383h-2.75V4.398z"/>
<path fill="#1B171B" d="M107.283,15.059c-4.559,0-4.756-2.814-4.756-3.963h2.594c0.08,1.012,0,1.883,2.199,1.883
	c1.051,0,2.023,0,2.023-1.268c0-0.973-0.795-0.875-2.814-1.309c-2.578-0.555-3.664-1.287-3.664-3.112c0-2.496,2-3.169,4.336-3.169
	c4.439,0,4.379,2.794,4.439,3.528h-2.596c-0.08-0.952-0.238-1.488-1.883-1.488c-0.791,0-1.645,0.139-1.645,0.951
	c0,0.831,0.615,0.831,3.111,1.367c2.238,0.475,3.426,1.327,3.426,3.271C112.055,14.027,110.393,15.059,107.283,15.059"/>
<path fill="#1B171B" d="M113.645,0.455h2.756v2.596h-2.756V0.455z M113.645,4.398h2.756v10.383h-2.756V4.398z"/>
<path fill="#1B171B" d="M123.16,15.059c-3.408,0-5.172-1.643-5.172-5.391c0-4.338,2.258-5.547,5.27-5.547
	c3.469,0,5.15,1.685,5.15,5.449C128.408,12.838,127.102,15.059,123.16,15.059 M123.359,6.201c-1.865,0-2.615,0.654-2.615,3.35
	c0,2.457,0.613,3.445,2.316,3.445c2.24,0,2.598-1.285,2.598-3.664C125.658,7.211,125.064,6.201,123.359,6.201"/>
<path fill="#1B171B" d="M136.322,14.781V7.903c0-1.027-0.396-1.625-1.822-1.625c-1.15,0-1.762,0.378-1.762,1.805v6.698h-2.754V4.398
	h2.652v1.407c0.197-0.635,0.434-1.685,2.775-1.685c2.398,0,3.666,0.831,3.666,3.309v7.352"/>
<path fill="#1B171B" d="M145.225,15.059c-4.559,0-4.756-2.814-4.756-3.963h2.598c0.078,1.012,0,1.883,2.195,1.883
	c1.053,0,2.021,0,2.021-1.268c0-0.973-0.793-0.875-2.812-1.309c-2.578-0.555-3.666-1.287-3.666-3.112c0-2.496,2-3.169,4.34-3.169
	c4.439,0,4.379,2.794,4.439,3.528h-2.598c-0.08-0.952-0.238-1.488-1.879-1.488c-0.797,0-1.648,0.139-1.648,0.951
	c0,0.831,0.615,0.831,3.111,1.367c2.24,0.475,3.43,1.327,3.43,3.271C150,14.027,148.332,15.059,145.225,15.059"/>
<polyline fill="#1B171B" points="75.048,14.781 75.048,14.781 72.295,14.781 72.295,0.455 75.048,0.455 "/>
</svg>
