<?xml version="1.0" encoding="UTF-8" standalone="no"?>
<!-- Created with Inkscape (http://www.inkscape.org/) -->

<svg
   width="135.23607mm"
   height="31.374611mm"
   viewBox="0 0 135.23607 31.374611"
   version="1.1"
   id="svg846"
   inkscape:version="1.1.2 (0a00cf5339, 2022-02-04)"
   sodipodi:docname="Logo of SNCF (2003).svg"
   xmlns:inkscape="http://www.inkscape.org/namespaces/inkscape"
   xmlns:sodipodi="http://sodipodi.sourceforge.net/DTD/sodipodi-0.dtd"
   xmlns="http://www.w3.org/2000/svg"
   xmlns:svg="http://www.w3.org/2000/svg">
  <sodipodi:namedview
     id="namedview848"
     pagecolor="#ffffff"
     bordercolor="#666666"
     borderopacity="1.0"
     inkscape:pageshadow="2"
     inkscape:pageopacity="0.0"
     inkscape:pagecheckerboard="0"
     inkscape:document-units="mm"
     showgrid="false"
     fit-margin-top="0"
     fit-margin-left="0"
     fit-margin-right="0"
     fit-margin-bottom="0"
     inkscape:zoom="0.40890372"
     inkscape:cx="-287.35371"
     inkscape:cy="-590.60357"
     inkscape:window-width="1850"
     inkscape:window-height="1136"
     inkscape:window-x="70"
     inkscape:window-y="27"
     inkscape:window-maximized="1"
     inkscape:current-layer="layer1" />
  <defs
     id="defs843" />
  <g
     inkscape:label="Layer 1"
     inkscape:groupmode="layer"
     id="layer1"
     transform="translate(-18.668578,-112.32133)">
    <path
       d="m 77.103845,132.37598 0.38261,-1.39209 h 5.03921 l 0.12623,-0.0923 -0.0369,-0.0577 -3.24414,-2.28757 c -0.54541,-0.38653 -0.78564,-0.80653 -0.78564,-1.3554 0,-0.16731 0.0161,-0.36692 0.0727,-0.54922 l 0.43961,-1.55894 c 0.1995,-0.74883 0.87921,-1.24555 1.66481,-1.24555 h 10.04178 l -0.40303,1.4124 h -9.41493 c -0.29711,0 -0.55361,0.19961 -0.62272,0.49268 l -0.29711,1.04652 -0.0369,0.29307 c 0,0.21923 0.0935,0.40269 0.29307,0.52961 l 5.51545,3.8832 0.16684,0.29307 -0.0208,0.11538 -0.0727,0.31384 -0.30934,0.16269 h -8.49908"
       style="fill:#004ea2;fill-opacity:1;fill-rule:nonzero;stroke:none;stroke-width:4.07044"
       id="path206" />
    <path
       d="m 76.407805,134.81425 0.4193,-1.44909 h 9.37829 c 0.29308,0 0.54946,-0.16269 0.62272,-0.41884 l 0.32977,-1.17229 0.0369,-0.18346 c 0,-0.21923 -0.10961,-0.42345 -0.2768,-0.54922 l -5.51138,-3.86693 -0.18311,-0.27231 0.0369,-0.14653 0.0727,-0.24 c 0.0565,-0.18346 0.16281,-0.25615 0.36634,-0.25615 h 8.40954 l -0.38665,1.37583 h -5.03514 l -0.10961,0.11538 0.0323,0.0923 3.39068,2.38127 c 0.40303,0.27692 0.64314,0.73268 0.64314,1.22929 l -0.0565,0.40268 -0.51287,1.73813 c -0.21981,0.7696 -0.84264,1.22928 -1.68517,1.22928 h -9.98072"
       style="fill:#004ea2;fill-opacity:1;fill-rule:nonzero;stroke:none;stroke-width:4.07044"
       id="path208" />
    <path
       d="m 89.266325,134.81425 2.7272,-9.70807 c 0.2198,-0.73268 0.89548,-1.26586 1.64853,-1.26586 h 2.32422 c 0.35007,0 0.66345,0.16731 0.88325,0.47653 l 3.659325,4.90896 0.0773,0.0346 0.09,-0.0692 1.50199,-5.34856 h 1.62818 l -2.28759,8.13274 c -0.0727,0.22038 -0.14653,0.31384 -0.2768,0.31384 h -0.28903 l -0.27681,-0.14653 -4.815325,-6.46789 c -0.18727,-0.25615 -0.3338,-0.32999 -0.60645,-0.32999 h -1.15198 c -0.3338,0 -0.56987,0.18345 -0.65941,0.46037 l -2.52775,9.01196 h -1.64853"
       style="fill:#004ea2;fill-opacity:1;fill-rule:nonzero;stroke:none;stroke-width:4.07044"
       id="path210" />
    <path
       d="m 99.812835,134.81425 c -0.4193,0 -0.61868,-0.11539 -0.87921,-0.46038 l -3.59013,-4.85195 -0.0727,-0.0577 -0.09,0.0923 -1.51827,5.25487 -1.6119,0.0231 2.26723,-8.04321 c 0.0565,-0.22038 0.15058,-0.29307 0.32977,-0.29307 h 0.2768 l 0.27277,0.13038 4.803115,6.46385 c 0.14654,0.18346 0.32965,0.27692 0.54541,0.27692 h 1.22928 c 0.30934,0 0.54957,-0.18346 0.64314,-0.49615 l 2.52367,-9.01196 h 1.6526 l -2.73126,9.72837 c -0.21981,0.78576 -0.84264,1.24556 -1.64853,1.24556 h -2.401555"
       style="fill:#004ea2;fill-opacity:1;fill-rule:nonzero;stroke:none;stroke-width:4.07044"
       id="path212" />
    <path
       d="m 108.84515,132.26614 -0.21981,-0.19962 0.0162,-0.11538 1.53862,-5.44225 c 0.0565,-0.18346 0.20354,-0.2723 0.40707,-0.2723 h 8.22229 l -0.36633,1.3554 h -6.50457 c -0.1995,0 -0.32977,0.0923 -0.38261,0.23653 l -0.80595,2.93072 -0.0208,0.0692 0.15058,0.11538 h 6.61039 l -0.36634,1.31883 h -8.27928"
       style="fill:#004ea2;fill-opacity:1;fill-rule:nonzero;stroke:none;stroke-width:4.07044"
       id="path214" />
    <path
       d="m 106.90355,134.81425 c -0.76938,0 -1.42873,-0.71653 -1.42873,-1.52236 l 0.0727,-0.47653 2.16141,-7.70941 c 0.19949,-0.75344 0.89952,-1.26586 1.68516,-1.26586 h 10.11098 l -0.38665,1.39209 h -9.21141 c -0.29307,0 -0.53318,0.20308 -0.62283,0.47653 l -1.88462,6.70408 -0.0565,0.32999 c 0,0.36577 0.2768,0.60691 0.65941,0.60691 h 8.82879 l -0.42334,1.46536 h -9.50448"
       style="fill:#004ea2;fill-opacity:1;fill-rule:nonzero;stroke:none;stroke-width:4.07044"
       id="path216" />
    <path
       d="m 117.89374,134.81425 2.72719,-9.6918 c 0.20354,-0.73268 0.9158,-1.28213 1.66889,-1.28213 h 9.5981 l -0.40303,1.4124 h -8.70261 c -0.28903,0 -0.54541,0.18346 -0.61868,0.47653 l -2.56438,9.08523 h -1.70552"
       style="fill:#004ea2;fill-opacity:1;fill-rule:nonzero;stroke:none;stroke-width:4.07044"
       id="path218" />
    <path
       d="m 122.32645,130.17794 -0.23607,-0.18346 0.0161,-0.0923 0.96875,-3.35406 c 0.0565,-0.23653 0.16685,-0.30922 0.38665,-0.30922 h 7.74605 l -0.38261,1.39209 h -6.10159 l -0.27277,0.23653 -0.29307,0.89999 v 0.0346 l 0.0935,0.0923 h 6.20742 l -0.34603,1.28213 h -7.78675"
       style="fill:#004ea2;fill-opacity:1;fill-rule:nonzero;stroke:none;stroke-width:4.07044"
       id="path220" />
    <path
       d="m 120.73491,134.81425 0.95248,-3.37033 0.21577,-0.20307 h 7.89666 l -0.38665,1.39209 h -6.06089 l -0.30934,0.21923 -0.56987,1.96196 h -1.73808"
       style="fill:#004ea2;fill-opacity:1;fill-rule:nonzero;stroke:none;stroke-width:4.07044"
       id="path222" />
    <path
       d="M 137.3993,119.88385 H 67.595295 l 0.10961,-0.40268 86.199745,-7.15984 -17.60466,11.4298 1.09902,-3.86693"
       style="fill:#ed1d25;fill-opacity:1;fill-rule:nonzero;stroke:none;stroke-width:4.07044"
       id="path224" />
    <path
       d="m 18.668578,143.69594 0.02077,-4.94565 H 128.26157 l -1.39209,4.94565 H 18.668993"
       style="fill:#899298;fill-opacity:1;fill-rule:nonzero;stroke:none;stroke-width:4.07044"
       id="path234" />
  </g>
</svg>
